<mxfile host="Electron" modified="2023-04-26T18:14:53.916Z" agent="Mozilla/5.0 (Windows NT 10.0; Win64; x64) AppleWebKit/537.36 (KHTML, like Gecko) draw.io/21.2.1 Chrome/112.0.5615.87 Electron/24.1.2 Safari/537.36" etag="KCEJGpsEi4HfERcY-viM" version="21.2.1" type="device">
  <diagram name="Page-1" id="e7e014a7-5840-1c2e-5031-d8a46d1fe8dd">
    <mxGraphModel dx="3683" dy="2517" grid="0" gridSize="10" guides="1" tooltips="1" connect="1" arrows="1" fold="1" page="1" pageScale="1" pageWidth="1169" pageHeight="826" background="none" math="0" shadow="0">
      <root>
        <mxCell id="0" />
        <mxCell id="1" parent="0" />
        <mxCell id="eJ1af739SEsCXvNcVaeH-57" value="&lt;font style=&quot;font-size: 12px;&quot;&gt;&lt;b&gt;Principal&lt;/b&gt;&lt;/font&gt;" style="shape=umlFrame;whiteSpace=wrap;html=1;pointerEvents=0;recursiveResize=0;container=1;collapsible=0;width=160;fontSize=16;align=left;spacing=15;" vertex="1" parent="1">
          <mxGeometry x="-261" y="-17" width="1300" height="750" as="geometry" />
        </mxCell>
        <mxCell id="2" value="Usuário" style="swimlane;whiteSpace=wrap;spacing=5;swimlaneFillColor=#FFF2CC;fillColor=#FFF2CC;" parent="eJ1af739SEsCXvNcVaeH-57" vertex="1">
          <mxGeometry x="50" y="50" width="800" height="650" as="geometry">
            <mxRectangle x="164.5" y="128" width="90" height="30" as="alternateBounds" />
          </mxGeometry>
        </mxCell>
        <mxCell id="eJ1af739SEsCXvNcVaeH-23" style="edgeStyle=none;curved=1;rounded=0;orthogonalLoop=1;jettySize=auto;html=1;exitX=0.5;exitY=1;exitDx=0;exitDy=0;entryX=0.5;entryY=0;entryDx=0;entryDy=0;fontSize=12;startSize=6;endSize=8;endArrow=open;endFill=0;" edge="1" parent="2" source="NOjX33mFwWhNziLndKdL-96" target="NOjX33mFwWhNziLndKdL-73">
          <mxGeometry relative="1" as="geometry" />
        </mxCell>
        <mxCell id="QJ6uKjH7EAsSJfQRMUIJ-63" value="[Criar equipe]" style="text;html=1;strokeColor=none;fillColor=none;align=center;verticalAlign=middle;whiteSpace=wrap;rounded=0;" parent="2" vertex="1">
          <mxGeometry x="340.8" y="286" width="85" height="20" as="geometry" />
        </mxCell>
        <mxCell id="QJ6uKjH7EAsSJfQRMUIJ-65" value="[Escolher equipe]" style="text;html=1;strokeColor=none;fillColor=none;align=center;verticalAlign=middle;whiteSpace=wrap;rounded=0;" parent="2" vertex="1">
          <mxGeometry x="381.5" y="317" width="100" height="20" as="geometry" />
        </mxCell>
        <mxCell id="QJ6uKjH7EAsSJfQRMUIJ-78" value="[Consultar histórico]" style="text;html=1;strokeColor=none;fillColor=none;align=center;verticalAlign=middle;whiteSpace=wrap;rounded=0;" parent="2" vertex="1">
          <mxGeometry x="526.5" y="286" width="120" height="20" as="geometry" />
        </mxCell>
        <mxCell id="eJ1af739SEsCXvNcVaeH-19" style="edgeStyle=orthogonalEdgeStyle;rounded=0;orthogonalLoop=1;jettySize=auto;html=1;exitX=0.5;exitY=1;exitDx=0;exitDy=0;entryX=0.5;entryY=0;entryDx=0;entryDy=0;fontSize=12;startSize=6;endSize=8;endArrow=open;endFill=0;" edge="1" parent="2" source="eJ1af739SEsCXvNcVaeH-2" target="QJ6uKjH7EAsSJfQRMUIJ-134">
          <mxGeometry relative="1" as="geometry" />
        </mxCell>
        <mxCell id="eJ1af739SEsCXvNcVaeH-21" style="edgeStyle=orthogonalEdgeStyle;rounded=0;orthogonalLoop=1;jettySize=auto;html=1;exitX=0.375;exitY=1;exitDx=0;exitDy=0;entryX=0.5;entryY=0;entryDx=0;entryDy=0;fontSize=12;startSize=6;endSize=8;endArrow=open;endFill=0;" edge="1" parent="2" source="eJ1af739SEsCXvNcVaeH-2" target="QJ6uKjH7EAsSJfQRMUIJ-128">
          <mxGeometry relative="1" as="geometry" />
        </mxCell>
        <mxCell id="eJ1af739SEsCXvNcVaeH-22" style="edgeStyle=orthogonalEdgeStyle;rounded=0;orthogonalLoop=1;jettySize=auto;html=1;exitX=0.625;exitY=1;exitDx=0;exitDy=0;entryX=0.5;entryY=0;entryDx=0;entryDy=0;fontSize=12;startSize=6;endSize=8;endArrow=open;endFill=0;" edge="1" parent="2" source="eJ1af739SEsCXvNcVaeH-2" target="QJ6uKjH7EAsSJfQRMUIJ-135">
          <mxGeometry relative="1" as="geometry" />
        </mxCell>
        <mxCell id="eJ1af739SEsCXvNcVaeH-7" value="" style="group" vertex="1" connectable="0" parent="2">
          <mxGeometry x="225.5" y="354" width="150" height="60" as="geometry" />
        </mxCell>
        <mxCell id="QJ6uKjH7EAsSJfQRMUIJ-128" value="Criar equipe" style="strokeColor=default;whiteSpace=wrap;rounded=1;glass=0;spacing=10;align=left;" parent="eJ1af739SEsCXvNcVaeH-7" vertex="1">
          <mxGeometry width="150" height="60" as="geometry" />
        </mxCell>
        <mxCell id="QJ6uKjH7EAsSJfQRMUIJ-132" value="" style="shape=image;verticalLabelPosition=bottom;labelBackgroundColor=default;verticalAlign=top;imageAspect=0;image=data:image/png,iVBORw0KGgoAAAANSUhEUgAAAfQAAAH0CAMAAAD8CC+4AAAAM1BMVEUAAAAAAAAAAAAAAAAAAAAAAAAAAAAAAAAAAAAAAAAAAAAAAAAAAAAAAAAAAAAAAAAAAACjBUbJAAAAEXRSTlMACoT/9SBAR/ifgN+/wv1gEqwI/vYAAAAJcEhZcwAAPYQAAD2EAdWsr3QAAAHvSURBVHic7dfLTgJBEEBRRhxUwMf/f62ObFk0iTIT7jnr6k517qp3OwAAAAAAAAAAAAAAAAAAAAAAAAAAAAAAAAAAAAAAAAAAAAAAAAAAAAAAAAAAAAAAAAAAAAAAAAAAAAAAAAAAAAAAAAAAAAAAAAAAAAAAAAAAAAAAAAAAAAAAAAAAAAAAAAAAAIDHNj0t1t6Cu5r2P57X3oK7Ej1I9CDRg0QPEj1I9CDRg0QPEj1I9CDRg0QPEj1I9CDRg0QPEj1I9CDRg0QPEj1I9CDRg0QPEj1I9CDRg0QPEj1I9CDRg0QPEj1I9CDRg0R/EPNh3MsS/fWGA4d57edxzdv+Px3Xfh7XiB4kepDoQaIHXaKfziPel9GPodHzSfTtukT/HJq95Z9+FH27RA8SPUj0INGDRA8SPUj0INGDRA8SPUj0INGDRA8SPUj0INGDRA8SPUj0INGDRA8SPUj0INGDRA8SPUj0INGDRA8SPUj0INGDRA8SPUj0INGDRA+af43NTl+Lv78XAAAAAAAAAAAAAAAAAAAAAAAAAAAAAAAAAAAAAAAAAAAAAAAAAAAAAAAAAAAAAAAAAAAAAAAAAAAAAAAAAAAAAAAAAAAAAAAAAAAAAAAAAAAAAAAAAAAAAAAAAAAAAAAAAAAAAABgU74BRdQcg5dnl34AAAAASUVORK5CYII=;clipPath=inset(39.33% 45.33% 40.67% 33.33%);" parent="eJ1af739SEsCXvNcVaeH-7" vertex="1">
          <mxGeometry x="120" y="32" width="20" height="20" as="geometry" />
        </mxCell>
        <mxCell id="eJ1af739SEsCXvNcVaeH-8" value="" style="group" vertex="1" connectable="0" parent="2">
          <mxGeometry x="409.5" y="354" width="150" height="60" as="geometry" />
        </mxCell>
        <mxCell id="QJ6uKjH7EAsSJfQRMUIJ-134" value="Escolher equipe" style="strokeColor=default;whiteSpace=wrap;rounded=1;glass=0;spacing=10;align=left;" parent="eJ1af739SEsCXvNcVaeH-8" vertex="1">
          <mxGeometry width="150" height="60" as="geometry" />
        </mxCell>
        <mxCell id="QJ6uKjH7EAsSJfQRMUIJ-139" value="" style="shape=image;verticalLabelPosition=bottom;labelBackgroundColor=default;verticalAlign=top;imageAspect=0;image=data:image/png,iVBORw0KGgoAAAANSUhEUgAAAfQAAAH0CAMAAAD8CC+4AAAAM1BMVEUAAAAAAAAAAAAAAAAAAAAAAAAAAAAAAAAAAAAAAAAAAAAAAAAAAAAAAAAAAAAAAAAAAACjBUbJAAAAEXRSTlMACoT/9SBAR/ifgN+/wv1gEqwI/vYAAAAJcEhZcwAAPYQAAD2EAdWsr3QAAAHvSURBVHic7dfLTgJBEEBRRhxUwMf/f62ObFk0iTIT7jnr6k517qp3OwAAAAAAAAAAAAAAAAAAAAAAAAAAAAAAAAAAAAAAAAAAAAAAAAAAAAAAAAAAAAAAAAAAAAAAAAAAAAAAAAAAAAAAAAAAAAAAAAAAAAAAAAAAAAAAAAAAAAAAAAAAAAAAAAAAAIDHNj0t1t6Cu5r2P57X3oK7Ej1I9CDRg0QPEj1I9CDRg0QPEj1I9CDRg0QPEj1I9CDRg0QPEj1I9CDRg0QPEj1I9CDRg0QPEj1I9CDRg0QPEj1I9CDRg0QPEj1I9CDRg0R/EPNh3MsS/fWGA4d57edxzdv+Px3Xfh7XiB4kepDoQaIHXaKfziPel9GPodHzSfTtukT/HJq95Z9+FH27RA8SPUj0INGDRA8SPUj0INGDRA8SPUj0INGDRA8SPUj0INGDRA8SPUj0INGDRA8SPUj0INGDRA8SPUj0INGDRA8SPUj0INGDRA8SPUj0INGDRA+af43NTl+Lv78XAAAAAAAAAAAAAAAAAAAAAAAAAAAAAAAAAAAAAAAAAAAAAAAAAAAAAAAAAAAAAAAAAAAAAAAAAAAAAAAAAAAAAAAAAAAAAAAAAAAAAAAAAAAAAAAAAAAAAAAAAAAAAAAAAAAAAABgU74BRdQcg5dnl34AAAAASUVORK5CYII=;clipPath=inset(39.33% 45.33% 40.67% 33.33%);" parent="eJ1af739SEsCXvNcVaeH-8" vertex="1">
          <mxGeometry x="120" y="31" width="20" height="20" as="geometry" />
        </mxCell>
        <mxCell id="eJ1af739SEsCXvNcVaeH-9" value="" style="group" vertex="1" connectable="0" parent="2">
          <mxGeometry x="593.5" y="354" width="150" height="60" as="geometry" />
        </mxCell>
        <mxCell id="QJ6uKjH7EAsSJfQRMUIJ-135" value="Consultar histórico" style="strokeColor=default;whiteSpace=wrap;rounded=1;glass=0;spacing=10;align=left;" parent="eJ1af739SEsCXvNcVaeH-9" vertex="1">
          <mxGeometry x="1" width="150" height="60" as="geometry" />
        </mxCell>
        <mxCell id="QJ6uKjH7EAsSJfQRMUIJ-140" value="" style="shape=image;verticalLabelPosition=bottom;labelBackgroundColor=default;verticalAlign=top;imageAspect=0;image=data:image/png,iVBORw0KGgoAAAANSUhEUgAAAfQAAAH0CAMAAAD8CC+4AAAAM1BMVEUAAAAAAAAAAAAAAAAAAAAAAAAAAAAAAAAAAAAAAAAAAAAAAAAAAAAAAAAAAAAAAAAAAACjBUbJAAAAEXRSTlMACoT/9SBAR/ifgN+/wv1gEqwI/vYAAAAJcEhZcwAAPYQAAD2EAdWsr3QAAAHvSURBVHic7dfLTgJBEEBRRhxUwMf/f62ObFk0iTIT7jnr6k517qp3OwAAAAAAAAAAAAAAAAAAAAAAAAAAAAAAAAAAAAAAAAAAAAAAAAAAAAAAAAAAAAAAAAAAAAAAAAAAAAAAAAAAAAAAAAAAAAAAAAAAAAAAAAAAAAAAAAAAAAAAAAAAAAAAAAAAAIDHNj0t1t6Cu5r2P57X3oK7Ej1I9CDRg0QPEj1I9CDRg0QPEj1I9CDRg0QPEj1I9CDRg0QPEj1I9CDRg0QPEj1I9CDRg0QPEj1I9CDRg0QPEj1I9CDRg0QPEj1I9CDRg0R/EPNh3MsS/fWGA4d57edxzdv+Px3Xfh7XiB4kepDoQaIHXaKfziPel9GPodHzSfTtukT/HJq95Z9+FH27RA8SPUj0INGDRA8SPUj0INGDRA8SPUj0INGDRA8SPUj0INGDRA8SPUj0INGDRA8SPUj0INGDRA8SPUj0INGDRA8SPUj0INGDRA8SPUj0INGDRA+af43NTl+Lv78XAAAAAAAAAAAAAAAAAAAAAAAAAAAAAAAAAAAAAAAAAAAAAAAAAAAAAAAAAAAAAAAAAAAAAAAAAAAAAAAAAAAAAAAAAAAAAAAAAAAAAAAAAAAAAAAAAAAAAAAAAAAAAAAAAAAAAABgU74BRdQcg5dnl34AAAAASUVORK5CYII=;clipPath=inset(39.33% 45.33% 40.67% 33.33%);" parent="eJ1af739SEsCXvNcVaeH-9" vertex="1">
          <mxGeometry x="120" y="30" width="20" height="20" as="geometry" />
        </mxCell>
        <mxCell id="eJ1af739SEsCXvNcVaeH-29" style="edgeStyle=none;curved=1;rounded=0;orthogonalLoop=1;jettySize=auto;html=1;exitX=0;exitY=0.5;exitDx=0;exitDy=0;entryX=1;entryY=0.5;entryDx=0;entryDy=0;fontSize=12;startSize=6;endSize=8;endArrow=open;endFill=0;" edge="1" parent="2" source="eJ1af739SEsCXvNcVaeH-2">
          <mxGeometry relative="1" as="geometry">
            <mxPoint x="184.4000000000001" y="250" as="targetPoint" />
          </mxGeometry>
        </mxCell>
        <mxCell id="eJ1af739SEsCXvNcVaeH-2" value="Escolher uma opção" style="shape=hexagon;perimeter=hexagonPerimeter2;whiteSpace=wrap;html=1;fixedSize=1;fontSize=12;" vertex="1" parent="2">
          <mxGeometry x="409.5" y="234" width="150" height="30" as="geometry" />
        </mxCell>
        <mxCell id="NOjX33mFwWhNziLndKdL-73" value="Acessar o ambiente do jogo" style="strokeColor=default;whiteSpace=wrap;rounded=1;glass=0;spacing=3;" parent="2" vertex="1">
          <mxGeometry x="421.8" y="134" width="125.4" height="50" as="geometry" />
        </mxCell>
        <mxCell id="NOjX33mFwWhNziLndKdL-96" value="" style="ellipse;fillColor=strokeColor;html=1;" parent="2" vertex="1">
          <mxGeometry x="469.5" y="54" width="30" height="30" as="geometry" />
        </mxCell>
        <mxCell id="eJ1af739SEsCXvNcVaeH-30" value="[Sair do ambiente do jogo]" style="text;html=1;strokeColor=none;fillColor=none;align=center;verticalAlign=middle;whiteSpace=wrap;rounded=0;" vertex="1" parent="2">
          <mxGeometry x="304.5" y="208" width="105" height="40" as="geometry" />
        </mxCell>
        <mxCell id="eJ1af739SEsCXvNcVaeH-42" style="edgeStyle=orthogonalEdgeStyle;rounded=0;orthogonalLoop=1;jettySize=auto;html=1;exitX=0.5;exitY=0;exitDx=0;exitDy=0;entryX=0.5;entryY=0;entryDx=0;entryDy=0;fontSize=12;startSize=6;endSize=8;endArrow=open;endFill=0;" edge="1" parent="2" source="eJ1af739SEsCXvNcVaeH-31" target="eJ1af739SEsCXvNcVaeH-2">
          <mxGeometry relative="1" as="geometry">
            <Array as="points">
              <mxPoint x="217" y="202" />
              <mxPoint x="485" y="202" />
            </Array>
          </mxGeometry>
        </mxCell>
        <mxCell id="eJ1af739SEsCXvNcVaeH-31" value="Confirmar a saída" style="shape=hexagon;perimeter=hexagonPerimeter2;whiteSpace=wrap;html=1;fixedSize=1;fontSize=12;" vertex="1" parent="2">
          <mxGeometry x="142.5" y="234" width="150" height="30" as="geometry" />
        </mxCell>
        <mxCell id="eJ1af739SEsCXvNcVaeH-35" style="edgeStyle=none;curved=1;rounded=0;orthogonalLoop=1;jettySize=auto;html=1;exitX=0.5;exitY=0;exitDx=0;exitDy=0;entryX=0.24;entryY=1.007;entryDx=0;entryDy=0;entryPerimeter=0;fontSize=12;startSize=6;endSize=8;startArrow=open;startFill=0;endArrow=none;endFill=0;" edge="1" parent="2" source="eJ1af739SEsCXvNcVaeH-34" target="eJ1af739SEsCXvNcVaeH-31">
          <mxGeometry relative="1" as="geometry" />
        </mxCell>
        <mxCell id="eJ1af739SEsCXvNcVaeH-34" value="" style="ellipse;html=1;shape=endState;fillColor=strokeColor;fontSize=16;" vertex="1" parent="2">
          <mxGeometry x="163.5" y="312" width="30" height="30" as="geometry" />
        </mxCell>
        <mxCell id="eJ1af739SEsCXvNcVaeH-36" value="[Sim]" style="text;html=1;strokeColor=none;fillColor=none;align=center;verticalAlign=middle;whiteSpace=wrap;rounded=0;" vertex="1" parent="2">
          <mxGeometry x="145.5" y="276" width="30" height="20" as="geometry" />
        </mxCell>
        <mxCell id="eJ1af739SEsCXvNcVaeH-39" value="[Não]" style="text;html=1;strokeColor=none;fillColor=none;align=center;verticalAlign=middle;whiteSpace=wrap;rounded=0;" vertex="1" parent="2">
          <mxGeometry x="225.5" y="180" width="30" height="20" as="geometry" />
        </mxCell>
        <mxCell id="eJ1af739SEsCXvNcVaeH-41" value="[O usuário saiu do ambiente do jogo]" style="text;html=1;strokeColor=none;fillColor=none;align=center;verticalAlign=middle;whiteSpace=wrap;rounded=0;" vertex="1" parent="2">
          <mxGeometry x="56.5" y="306" width="105" height="40" as="geometry" />
        </mxCell>
        <mxCell id="eJ1af739SEsCXvNcVaeH-49" style="edgeStyle=none;curved=1;rounded=0;orthogonalLoop=1;jettySize=auto;html=1;exitX=0.5;exitY=1;exitDx=0;exitDy=0;entryX=0.5;entryY=0;entryDx=0;entryDy=0;fontSize=12;startSize=6;endSize=8;endArrow=open;endFill=0;" edge="1" parent="2" source="eJ1af739SEsCXvNcVaeH-46" target="eJ1af739SEsCXvNcVaeH-44">
          <mxGeometry relative="1" as="geometry" />
        </mxCell>
        <mxCell id="eJ1af739SEsCXvNcVaeH-46" value="" style="rhombus;fontSize=16;" vertex="1" parent="2">
          <mxGeometry x="378" y="456" width="30" height="30" as="geometry" />
        </mxCell>
        <mxCell id="eJ1af739SEsCXvNcVaeH-47" style="edgeStyle=orthogonalEdgeStyle;rounded=0;orthogonalLoop=1;jettySize=auto;html=1;exitX=0.5;exitY=1;exitDx=0;exitDy=0;entryX=0;entryY=0.5;entryDx=0;entryDy=0;fontSize=12;startSize=6;endSize=8;endArrow=open;endFill=0;" edge="1" parent="2" source="QJ6uKjH7EAsSJfQRMUIJ-128" target="eJ1af739SEsCXvNcVaeH-46">
          <mxGeometry relative="1" as="geometry" />
        </mxCell>
        <mxCell id="eJ1af739SEsCXvNcVaeH-48" style="edgeStyle=orthogonalEdgeStyle;rounded=0;orthogonalLoop=1;jettySize=auto;html=1;exitX=0.5;exitY=1;exitDx=0;exitDy=0;entryX=1;entryY=0.5;entryDx=0;entryDy=0;fontSize=12;startSize=6;endSize=8;endArrow=open;endFill=0;" edge="1" parent="2" source="QJ6uKjH7EAsSJfQRMUIJ-134" target="eJ1af739SEsCXvNcVaeH-46">
          <mxGeometry relative="1" as="geometry" />
        </mxCell>
        <mxCell id="eJ1af739SEsCXvNcVaeH-43" value="" style="group" vertex="1" connectable="0" parent="2">
          <mxGeometry x="318" y="536" width="150" height="60" as="geometry" />
        </mxCell>
        <mxCell id="eJ1af739SEsCXvNcVaeH-44" value="Jogar" style="strokeColor=default;whiteSpace=wrap;rounded=1;glass=0;spacing=10;align=left;" vertex="1" parent="eJ1af739SEsCXvNcVaeH-43">
          <mxGeometry width="150" height="60" as="geometry" />
        </mxCell>
        <mxCell id="eJ1af739SEsCXvNcVaeH-45" value="" style="shape=image;verticalLabelPosition=bottom;labelBackgroundColor=default;verticalAlign=top;imageAspect=0;image=data:image/png,iVBORw0KGgoAAAANSUhEUgAAAfQAAAH0CAMAAAD8CC+4AAAAM1BMVEUAAAAAAAAAAAAAAAAAAAAAAAAAAAAAAAAAAAAAAAAAAAAAAAAAAAAAAAAAAAAAAAAAAACjBUbJAAAAEXRSTlMACoT/9SBAR/ifgN+/wv1gEqwI/vYAAAAJcEhZcwAAPYQAAD2EAdWsr3QAAAHvSURBVHic7dfLTgJBEEBRRhxUwMf/f62ObFk0iTIT7jnr6k517qp3OwAAAAAAAAAAAAAAAAAAAAAAAAAAAAAAAAAAAAAAAAAAAAAAAAAAAAAAAAAAAAAAAAAAAAAAAAAAAAAAAAAAAAAAAAAAAAAAAAAAAAAAAAAAAAAAAAAAAAAAAAAAAAAAAAAAAIDHNj0t1t6Cu5r2P57X3oK7Ej1I9CDRg0QPEj1I9CDRg0QPEj1I9CDRg0QPEj1I9CDRg0QPEj1I9CDRg0QPEj1I9CDRg0QPEj1I9CDRg0QPEj1I9CDRg0QPEj1I9CDRg0R/EPNh3MsS/fWGA4d57edxzdv+Px3Xfh7XiB4kepDoQaIHXaKfziPel9GPodHzSfTtukT/HJq95Z9+FH27RA8SPUj0INGDRA8SPUj0INGDRA8SPUj0INGDRA8SPUj0INGDRA8SPUj0INGDRA8SPUj0INGDRA8SPUj0INGDRA8SPUj0INGDRA8SPUj0INGDRA+af43NTl+Lv78XAAAAAAAAAAAAAAAAAAAAAAAAAAAAAAAAAAAAAAAAAAAAAAAAAAAAAAAAAAAAAAAAAAAAAAAAAAAAAAAAAAAAAAAAAAAAAAAAAAAAAAAAAAAAAAAAAAAAAAAAAAAAAAAAAAAAAABgU74BRdQcg5dnl34AAAAASUVORK5CYII=;clipPath=inset(39.33% 45.33% 40.67% 33.33%);" vertex="1" parent="eJ1af739SEsCXvNcVaeH-43">
          <mxGeometry x="120" y="32" width="20" height="20" as="geometry" />
        </mxCell>
        <mxCell id="eJ1af739SEsCXvNcVaeH-51" value="" style="rhombus;fontSize=16;" vertex="1" parent="2">
          <mxGeometry x="561.5" y="551" width="30" height="30" as="geometry" />
        </mxCell>
        <mxCell id="eJ1af739SEsCXvNcVaeH-53" style="edgeStyle=none;curved=1;rounded=0;orthogonalLoop=1;jettySize=auto;html=1;exitX=1;exitY=0.5;exitDx=0;exitDy=0;entryX=0;entryY=0.5;entryDx=0;entryDy=0;fontSize=12;startSize=6;endSize=8;endArrow=open;endFill=0;" edge="1" parent="2" source="eJ1af739SEsCXvNcVaeH-44" target="eJ1af739SEsCXvNcVaeH-51">
          <mxGeometry relative="1" as="geometry" />
        </mxCell>
        <mxCell id="eJ1af739SEsCXvNcVaeH-54" style="edgeStyle=orthogonalEdgeStyle;rounded=0;orthogonalLoop=1;jettySize=auto;html=1;exitX=0.5;exitY=1;exitDx=0;exitDy=0;entryX=0.5;entryY=0;entryDx=0;entryDy=0;fontSize=12;startSize=6;endSize=8;endArrow=open;endFill=0;" edge="1" parent="2" source="QJ6uKjH7EAsSJfQRMUIJ-135" target="eJ1af739SEsCXvNcVaeH-51">
          <mxGeometry relative="1" as="geometry" />
        </mxCell>
        <mxCell id="QJ6uKjH7EAsSJfQRMUIJ-9" value="Front-end" style="swimlane;whiteSpace=wrap;spacing=5;swimlaneFillColor=#FFCCFF;fillColor=#FFCCFF;" parent="eJ1af739SEsCXvNcVaeH-57" vertex="1">
          <mxGeometry x="850" y="50" width="400" height="650" as="geometry">
            <mxRectangle x="164.5" y="128" width="90" height="30" as="alternateBounds" />
          </mxGeometry>
        </mxCell>
        <mxCell id="QJ6uKjH7EAsSJfQRMUIJ-44" value="Exibir a tela inicial" style="strokeColor=default;whiteSpace=wrap;rounded=1;glass=0;spacing=3;" parent="QJ6uKjH7EAsSJfQRMUIJ-9" vertex="1">
          <mxGeometry x="137.29999999999995" y="134" width="125.4" height="50" as="geometry" />
        </mxCell>
        <mxCell id="QJ6uKjH7EAsSJfQRMUIJ-45" style="edgeStyle=orthogonalEdgeStyle;rounded=0;orthogonalLoop=1;jettySize=auto;html=1;exitX=1;exitY=0.5;exitDx=0;exitDy=0;entryX=0;entryY=0.5;entryDx=0;entryDy=0;endSize=8;endArrow=open;endFill=0;" parent="eJ1af739SEsCXvNcVaeH-57" source="NOjX33mFwWhNziLndKdL-73" target="QJ6uKjH7EAsSJfQRMUIJ-44" edge="1">
          <mxGeometry relative="1" as="geometry" />
        </mxCell>
        <mxCell id="eJ1af739SEsCXvNcVaeH-55" style="edgeStyle=orthogonalEdgeStyle;rounded=0;orthogonalLoop=1;jettySize=auto;html=1;exitX=1;exitY=0.5;exitDx=0;exitDy=0;entryX=0.75;entryY=1;entryDx=0;entryDy=0;fontSize=12;startSize=6;endSize=8;endArrow=open;endFill=0;" edge="1" parent="eJ1af739SEsCXvNcVaeH-57" source="eJ1af739SEsCXvNcVaeH-51" target="QJ6uKjH7EAsSJfQRMUIJ-44">
          <mxGeometry relative="1" as="geometry" />
        </mxCell>
        <mxCell id="eJ1af739SEsCXvNcVaeH-56" style="edgeStyle=orthogonalEdgeStyle;rounded=0;orthogonalLoop=1;jettySize=auto;html=1;exitX=0.25;exitY=1;exitDx=0;exitDy=0;entryX=1;entryY=0.5;entryDx=0;entryDy=0;fontSize=12;startSize=6;endSize=8;endArrow=open;endFill=0;" edge="1" parent="eJ1af739SEsCXvNcVaeH-57" source="QJ6uKjH7EAsSJfQRMUIJ-44" target="eJ1af739SEsCXvNcVaeH-2">
          <mxGeometry relative="1" as="geometry" />
        </mxCell>
      </root>
    </mxGraphModel>
  </diagram>
</mxfile>
